<svg width="35" height="35" viewBox="0 0 35 35" fill="none" xmlns="http://www.w3.org/2000/svg">
<path d="M34.4355 16.9355H18.0645V0.564516C18.0645 0.252762 17.8118 0 17.5 0C17.1882 0 16.9355 0.252762 16.9355 0.564516V16.9355H0.564516C0.252762 16.9355 0 17.1882 0 17.5C0 17.8118 0.252762 18.0645 0.564516 18.0645H16.9355V34.4355C16.9355 34.7472 17.1882 35 17.5 35C17.8118 35 18.0645 34.7472 18.0645 34.4355V18.0645H34.4355C34.7472 18.0645 35 17.8118 35 17.5C35 17.1882 34.7472 16.9355 34.4355 16.9355Z" fill="#B6B6B6"/>
</svg>
