<svg width="29" height="23" viewBox="0 0 29 23" fill="none" xmlns="http://www.w3.org/2000/svg">
<g clip-path="url(#clip0)">
<path d="M28.9162 2.13186L24.5185 21.5903C24.1778 22.9795 23.3793 23.3466 22.1228 22.6916L15.4633 18.0409L12.2299 20.9724C12.0592 21.1563 11.8511 21.3058 11.6179 21.412C11.3848 21.5181 11.1314 21.5788 10.8729 21.5903L11.3839 15.1649L23.7395 4.6434C24.041 4.35817 24.041 4.19179 23.7395 4.15218C23.5947 4.11518 23.4426 4.11245 23.2965 4.14423C23.1504 4.17601 23.0149 4.24133 22.9018 4.3344L7.63951 13.4694L1.03871 11.4966C0.30156 11.2907 0 10.9817 0 10.5776C0 10.1735 0.494223 9.82493 1.3654 9.50802L27.0399 0.111532C27.2946 0.00522061 27.5758 -0.0310981 27.8514 0.00673369C28.1269 0.0445655 28.3857 0.155019 28.5979 0.325449C28.8068 0.577201 28.9454 0.87456 29.001 1.1902C29.0566 1.50585 29.0275 1.82965 28.9162 2.13186Z" fill="#585858"/>
</g>
<defs>
<clipPath id="clip0">
<rect width="29" height="23" fill="white"/>
</clipPath>
</defs>
</svg>
