<svg width="29" height="29" viewBox="0 0 29 29" fill="none" xmlns="http://www.w3.org/2000/svg">
<g clip-path="url(#clip0)">
<path d="M24.6584 4.19172C26.0394 5.5011 27.1372 7.07992 27.884 8.83057C28.6307 10.5812 29.0106 12.4665 29 14.3698C29.0281 16.2683 28.6628 18.152 27.9271 19.9023C27.1914 21.6526 26.1013 23.2315 24.7254 24.5395C23.3914 25.8915 21.7979 26.9598 20.0407 27.6802C18.2835 28.4005 16.3989 28.7581 14.5 28.7315C12.1011 28.7502 9.73748 28.1527 7.63555 26.996L0 28.9998L2.07023 21.5632C0.783963 19.3853 0.111963 16.8993 0.125723 14.3698C0.0949693 12.475 0.453259 10.5941 1.17842 8.84341C1.90358 7.09271 2.98019 5.50949 4.34162 4.19172C5.65802 2.83491 7.2388 1.76281 8.98612 1.04175C10.7334 0.320703 12.6101 -0.0339479 14.5 -0.000246092C16.3897 -0.0324549 18.2659 0.322878 20.013 1.04384C21.7601 1.76481 23.3411 2.83612 24.6584 4.19172ZM14.5 26.3504C16.0781 26.3692 17.6435 26.0659 19.1004 25.459C20.5574 24.8521 21.8753 23.9544 22.9737 22.8208C24.1184 21.7343 25.0258 20.4226 25.6388 18.9682C26.2519 17.5137 26.5573 15.9481 26.5358 14.3698C26.5518 12.7968 26.2378 11.2379 25.6141 9.79383C24.9904 8.34973 24.071 7.0525 22.915 5.98588C21.8293 4.86334 20.5259 3.97428 19.0848 3.37313C17.6436 2.77198 16.0949 2.4714 14.5335 2.48978C12.9586 2.45921 11.3939 2.75054 9.93544 3.34593C8.47696 3.94131 7.15532 4.82822 6.05145 5.95234C4.91591 7.03745 4.01586 8.34478 3.40735 9.79294C2.79884 11.2411 2.4949 12.7991 2.51445 14.3698C2.50564 16.6236 3.15845 18.8304 4.39191 20.7164L4.65173 21.1692L3.42804 25.5707L7.96243 24.4054L8.41503 24.6653C10.2468 25.7831 12.3543 26.3667 14.5 26.3504ZM21.0376 17.3545C21.3037 17.4546 21.5463 17.6088 21.75 17.8072C21.8425 18.4014 21.7519 19.0097 21.4902 19.5511C21.2693 20.001 20.9191 20.3748 20.4844 20.6242C20.075 20.9345 19.5984 21.1441 19.0931 21.2362C17.593 21.3372 16.094 21.024 14.7598 20.3308C12.6421 19.4253 10.6138 17.6116 8.67486 14.8896C7.79403 13.8524 7.27087 12.5588 7.18295 11.2007C7.19333 10.073 7.62023 8.98907 8.3815 8.15731C8.6472 7.91362 8.99331 7.77633 9.35376 7.77165H10.0662C10.2556 7.75325 10.4452 7.80558 10.5984 7.91856C10.7515 8.03155 10.8575 8.19722 10.896 8.38368L11.9939 11.0414C12.0553 11.1362 12.0928 11.2444 12.103 11.3569C12.1132 11.4694 12.0959 11.5827 12.0526 11.6869C11.8945 12.0557 11.6764 12.3956 11.4072 12.693L10.9546 13.1793C10.9127 13.2212 10.9546 13.3721 11.0217 13.632C11.5038 14.5935 12.1735 15.4487 12.9913 16.1472C13.8926 16.8222 14.8584 17.4063 15.8746 17.8911C16.2182 18.0671 16.478 18.042 16.654 17.8324C17.2072 17.1784 17.6012 16.7089 17.8191 16.4071C17.8972 16.2808 18.0215 16.1901 18.1655 16.154C18.3095 16.118 18.4618 16.1396 18.5902 16.2143C18.9254 16.3149 19.7384 16.7005 21.0376 17.3545Z" fill="#585858"/>
</g>
<defs>
<clipPath id="clip0">
<rect width="29" height="29" fill="white"/>
</clipPath>
</defs>
</svg>
